<?xml version="1.0" encoding="UTF-8"?>
<svg version="1.1" xmlns="http://www.w3.org/2000/svg" width="1024" height="1024">
<path d="M0 0 C337.92 0 675.84 0 1024 0 C1024 337.92 1024 675.84 1024 1024 C686.08 1024 348.16 1024 0 1024 C0 686.08 0 348.16 0 0 Z " fill="#FEFEFE" transform="translate(0,0)"/>
<path d="M0 0 C3.16468337 3.07753202 6.00079995 6.18972069 8.6875 9.6875 C13.15208282 15.21185753 18.03981654 20.23141543 23.0625 25.25 C24.19594849 26.38441528 24.19594849 26.38441528 25.35229492 27.54174805 C29.47254672 31.62257589 33.68535732 35.5344682 38.07739258 39.3203125 C41.23941207 42.08281334 44.26539946 44.98718524 47.3125 47.875 C52.47929621 52.73353164 57.7361638 57.38067933 63.28125 61.80859375 C65.73616243 63.78733782 68.1362501 65.81845177 70.52563477 67.87548828 C77.33223521 73.72515406 84.38762372 79.19467001 91.54296875 84.609375 C95.30867741 87.46160738 99.0289783 90.36762947 102.74169922 93.28833008 C110.52198478 99.40069064 118.43266061 105.25542248 126.55688477 110.90161133 C129.33904595 112.83715118 132.11204463 114.78420404 134.87255859 116.75048828 C145.46622619 124.29390031 156.22479461 131.56290974 167.0625 138.75 C168.78766668 139.89650223 170.51268122 141.04323343 172.23754883 142.19018555 C175.62352716 144.44142362 179.01023015 146.69156487 182.39746094 148.94091797 C186.32392361 151.54931334 190.24583267 154.16441355 194.1640625 156.78515625 C205.57636458 164.4169485 217.036958 171.96669463 228.56445312 179.42333984 C232.71367025 182.10935069 236.85648513 184.80520457 241 187.5 C245.89335162 190.68150794 250.78712013 193.86236102 255.68359375 197.0390625 C269.41769043 205.95223415 283.12063168 214.91282139 296.80517578 223.90185547 C298.74036326 225.17275576 300.6760832 226.4428465 302.61279297 227.71142578 C326.77214484 243.54428968 326.77214484 243.54428968 331 252 C331.39986266 258.66747735 331.26917131 265.18811427 330 271.75 C325.0611676 301.02510798 331.38794693 331.57792587 348.12890625 356.12109375 C350.34606571 359.1479984 352.63622675 362.08641871 355 365 C355.68707031 365.85335938 356.37414062 366.70671875 357.08203125 367.5859375 C378.00462381 392.19618552 408.83424563 402.97511423 440.10546875 406.73046875 C448.06228032 407.28114076 456.02997277 407.14564517 464 407 C461.18221667 409.15113703 458.29611962 411.18644084 455.38378906 413.20703125 C435.58640117 427.05750806 414.95173821 444.09652357 404 466 C404.648479 465.93941406 405.29695801 465.87882812 405.96508789 465.81640625 C437.27576183 462.93344026 437.27576183 462.93344026 452 465 C450.67251397 472.77278006 449.08099405 480.48009883 447.40917969 488.18481445 C445.43612111 497.38006576 444.87081062 506.03429682 444.9375 515.4375 C444.94426758 517.25024414 444.94426758 517.25024414 444.95117188 519.09960938 C444.96289855 522.06645789 444.97931104 525.0332027 445 528 C445.73863281 526.93523438 446.47726562 525.87046875 447.23828125 524.7734375 C463.08268946 502.05240864 480.06886913 480.18038181 502 463 C503.00804687 462.18660156 504.01609375 461.37320312 505.0546875 460.53515625 C536.30665958 435.55962994 579.65888157 420.12793493 620 424 C626.73359486 425.00673244 633.37014157 426.46423135 640 428 C638.17385423 421.24806631 636.43314463 416.08990961 630.390625 412.20703125 C620.74467105 407.33677019 610.32232559 405.58790395 599.6640625 404.578125 C584.80817346 403.15558579 571.21411844 400.64499533 561.12890625 388.74609375 C559.89791109 386.84209778 559.42172701 385.21527864 559 383 C559.54269531 382.80664062 560.08539062 382.61328125 560.64453125 382.4140625 C561.35996094 382.15367187 562.07539062 381.89328125 562.8125 381.625 C563.52019531 381.36976563 564.22789062 381.11453125 564.95703125 380.8515625 C567.24773359 379.9734231 567.24773359 379.9734231 570 378 C545.16101518 373.04735077 523.74306947 374.02558131 498.79380798 377.96910095 C462.97883132 383.62968378 431.47756386 382.7729916 396 375 C396 374.34 396 373.68 396 373 C422.34454997 367.62470394 448.79677352 363.13773263 475.34667969 358.90478516 C480.45472871 358.08936767 485.55990175 357.25733691 490.6640625 356.41796875 C492.77335425 356.07233202 494.88268716 355.72694762 496.99203491 355.38165283 C498.85862567 355.0754393 500.72485357 354.76701636 502.59106445 354.45849609 C533.98086248 349.35671692 575.32777528 347.3220603 603.375 365.0625 C610.50801636 370.48918696 610.50801636 370.48918696 611.453125 375.3125 C611.71828887 377.54545892 611.90213755 379.75405672 612 382 C613.8253125 382.0928125 613.8253125 382.0928125 615.6875 382.1875 C630.63143388 383.87661027 645.67918794 392.3326898 655 404 C661.55128042 414.81227582 663.59719631 424.20173003 661.31640625 436.765625 C659.2482797 445.10678271 656.18648589 452.50619025 652 460 C651.34 460 650.68 460 650 460 C649.29875 459.0925 648.5975 458.185 647.875 457.25 C642.87966347 451.05695121 635.56849974 449.26319005 628 448 C624.88909333 447.71803867 621.81001071 447.6658268 618.6875 447.6875 C617.82793701 447.69241455 616.96837402 447.6973291 616.08276367 447.70239258 C579.95992863 448.34304313 547.80037449 462.96902038 522 488 C519.5603853 490.58112368 517.28641646 493.28319927 515 496 C514.10849537 497.01973942 513.21511376 498.03783958 512.3203125 499.0546875 C501.02597328 511.94594157 491.17483192 525.65026763 481.58032227 539.83886719 C473.41238416 551.87936272 464.92342893 563.34150226 455 574 C453.8705773 575.30869615 452.74541241 576.62108164 451.625 577.9375 C443.15167687 587.62129786 433.76824637 595.88706788 423.671875 603.83203125 C417.81923529 608.63336346 414.48457086 612.66914791 413.625 620.3515625 C412.63706914 650.1747252 433.20408104 679.57953626 452.6640625 700.4765625 C454.67418155 702.64802889 456.59491108 704.8621479 458.5 707.125 C468.79359097 718.83514019 481.88651484 727.49583773 494.49609375 736.5 C507.42307028 745.76111751 507.42307028 745.76111751 510 752 C511.69350685 764.55673369 506.3395679 775.15522904 499 785 C493.4831052 791.8481918 487.86322464 797.84584359 480 802 C481.13732736 799.70886227 482.29507097 797.43099047 483.47265625 795.16015625 C483.99730469 794.13792969 484.52195312 793.11570312 485.0625 792.0625 C485.85333984 790.53302734 485.85333984 790.53302734 486.66015625 788.97265625 C489.62688674 782.39049327 490.21649167 774.5655079 488.3515625 767.56640625 C482.91021216 754.14905947 471.07953609 747.5802944 458.41015625 741.9453125 C446.82955861 737.40316561 430.10648756 738.40976258 418.59375 742.7421875 C408.60277728 747.5872074 403.17015205 755.45510391 398 765 C394.44113914 759.09229096 395.24910094 751.58340438 396.6171875 745.0546875 C400.19855377 733.9302666 408.03534803 725.21977302 418.29296875 719.78515625 C422.55142579 717.78075687 426.33895011 716.73782039 431 716 C429.50557373 715.38125 429.50557373 715.38125 427.98095703 714.75 C339.5524302 678.11585206 339.5524302 678.11585206 310 638 C309.74943848 638.48654053 309.49887695 638.97308105 309.24072266 639.47436523 C297.71381687 661.78846834 285.17953647 682.68795928 269 702 C268.34547852 702.78769775 268.34547852 702.78769775 267.67773438 703.59130859 C265.16944982 706.60277743 262.63101085 709.57873777 260.03125 712.51171875 C258.0963456 714.69513744 256.30741244 716.90965131 254.59375 719.26953125 C249.49100508 725.58997666 245.79446024 727.53997443 237.83349609 728.45849609 C232.88702387 728.833459 227.95940867 728.9667211 223 729 C221.31770719 729.02988366 219.63541544 729.05982694 217.953125 729.08984375 C214.29962996 729.13269654 210.65281283 729.09542907 207 729 C207.51949219 728.03320312 208.03898438 727.06640625 208.57421875 726.0703125 C212.49046091 718.76494235 216.35573716 711.44621012 220 704 C219.43796875 704.47566406 218.8759375 704.95132813 218.296875 705.44140625 C188.2516553 730.46372879 188.2516553 730.46372879 181.1875 729.8984375 C180.20644287 729.82222168 179.22538574 729.74600586 178.21459961 729.66748047 C177.15378174 729.57096191 176.09296387 729.47444336 175 729.375 C173.90888916 729.28234863 172.81777832 729.18969727 171.69360352 729.09423828 C159.05438592 727.94415829 146.52544905 726.01829096 134 724 C135.41991887 720.72455159 137.12200291 718.69691494 139.73828125 716.28515625 C140.84526367 715.25551758 140.84526367 715.25551758 141.97460938 714.20507812 C142.74611328 713.49802734 143.51761719 712.79097656 144.3125 712.0625 C145.83004714 710.65822186 147.34698909 709.25328938 148.86328125 707.84765625 C149.53657471 707.22898682 150.20986816 706.61031738 150.90356445 705.97290039 C153.320586 703.69830494 155.66267587 701.35616325 158 699 C157.1435791 699.4031543 156.2871582 699.80630859 155.40478516 700.22167969 C152.18156518 701.73731128 148.957151 703.25034499 145.73193359 704.76171875 C144.34473909 705.41239816 142.95800747 706.06406545 141.57177734 706.71679688 C137.06080573 708.84037341 132.53466857 710.92750035 128 713 C126.56865723 713.68352539 126.56865723 713.68352539 125.10839844 714.38085938 C115.17040033 718.85161191 107.32950944 715.79727714 97.5 712.1875 C96.42790283 711.79731689 95.35580566 711.40713379 94.2512207 711.00512695 C86.0503938 707.93868931 78.09049547 704.45174219 70.1875 700.6875 C68.59615234 699.93279419 68.59615234 699.93279419 66.97265625 699.1628418 C62.2559054 696.85565174 58.59482354 694.89833329 55 691 C55.83321777 690.6690332 56.66643555 690.33806641 57.52490234 689.99707031 C76.27680478 682.525107 94.80341715 674.75909775 113 666 C114.14452637 665.45230957 115.28905273 664.90461914 116.46826172 664.34033203 C132.89946462 656.43919797 148.6618569 647.85898845 164 638 C164.80083008 637.48727539 165.60166016 636.97455078 166.42675781 636.44628906 C182.32557471 626.20896959 197.70213019 615.20558834 211.8984375 602.69921875 C214.56118369 600.35570968 217.32154936 598.17419315 220.125 596 C225.8606109 591.35158699 231.03061785 586.1521553 236.25 580.9375 C237.52834717 579.66036133 237.52834717 579.66036133 238.83251953 578.35742188 C243.753093 573.39352503 248.4569631 568.309773 253 563 C253.91156793 561.966395 254.82425352 560.93377416 255.73828125 559.90234375 C262.08113981 552.59698768 267.60121454 545.00698786 272.80249023 536.85180664 C274.50707159 534.215874 276.255465 531.60960124 278 529 C276.92331055 529.01571045 275.84662109 529.0314209 274.73730469 529.04760742 C235.3498587 529.57125747 201.17578764 524.73277466 166 506 C165.40477539 505.68836914 164.80955078 505.37673828 164.19628906 505.05566406 C154.6725502 500.03618095 146.24605788 493.9662054 137.77099609 487.37158203 C136.18935291 486.14664801 134.58993846 484.94473994 132.98828125 483.74609375 C132.16714844 483.12863281 131.34601563 482.51117187 130.5 481.875 C129.8090625 481.35679687 129.118125 480.83859375 128.40625 480.3046875 C127.9421875 479.87414062 127.478125 479.44359375 127 479 C127 478.34 127 477.68 127 477 C139.9240743 474.44165882 152.9081126 472.43755749 165.9375 470.5 C179.32580795 468.50551078 192.68509235 466.44142039 206 464 C205.13556274 463.92483154 205.13556274 463.92483154 204.25366211 463.84814453 C203.43647705 463.77708496 202.61929199 463.70602539 201.77734375 463.6328125 C200.85848389 463.55305176 199.93962402 463.47329102 198.99291992 463.39111328 C196.92397447 463.21091747 194.85512922 463.02956822 192.78637695 462.84716797 C187.61447513 462.39269231 182.44288611 461.95160522 177.265625 461.5625 C143.62423979 458.97447465 109.90995223 453.25181158 79.93115234 437.04150391 C77.98133185 435.98993195 76.01715016 434.96944512 74.05078125 433.94921875 C50.47269805 421.46398528 24.57309574 400.57594832 10 378 C10 377.34 10 376.68 10 376 C10.81823242 376.06993164 11.63646484 376.13986328 12.47949219 376.21191406 C47.31379027 379.17754962 82.16668632 382.10595026 117.0625 384.25 C118.34342529 384.33000244 119.62435059 384.41000488 120.9440918 384.49243164 C127.97195498 384.90476735 134.96030936 385.09686413 142 385 C141.37359619 384.8548999 140.74719238 384.7097998 140.10180664 384.56030273 C89.54378957 372.78865377 40.7691646 358.08033544 2 322 C1.28328125 321.34902344 0.5665625 320.69804687 -0.171875 320.02734375 C-18.10971947 303.03876477 -31.36180687 280.37179519 -39 257 C-39 256.34 -39 255.68 -39 255 C-27.26643661 257.84828889 -15.62552785 260.98872623 -3.99453735 264.2286377 C-0.91780866 265.08538709 2.15975483 265.93907821 5.23754883 266.79199219 C13.32684874 269.03412811 21.41532965 271.27918975 29.50146484 273.53271484 C52.91542653 280.05686032 76.38652318 286.23698156 100 292 C98.04542095 290.04542095 95.14217742 289.17729622 92.640625 288.04296875 C91.2934742 287.42555844 89.94664479 286.80744648 88.60009766 286.1887207 C87.53508026 285.69959702 87.53508026 285.69959702 86.44854736 285.20059204 C56.17825951 271.2520239 27.63411564 254.54082537 3.44873047 231.38574219 C2.1529957 230.14634371 0.8448718 228.91992768 -0.46484375 227.6953125 C-30.19735971 199.16463813 -41.90951401 158.15174821 -44 118 C-39.84443428 119.51093803 -36.15660767 121.57464143 -32.390625 123.859375 C-31.07831815 124.64629091 -29.76597958 125.43315394 -28.45361328 126.2199707 C-27.7684967 126.63252106 -27.08338013 127.04507141 -26.37750244 127.47012329 C-4.39211977 140.69623231 18.00606554 153.0948061 40.63037109 165.19384766 C43.50555124 166.73497088 46.37719941 168.28239746 49.24662781 169.834198 C64.68980671 178.18573475 80.2394203 186.26191416 96 194 C95.50153564 193.6285083 95.00307129 193.2570166 94.48950195 192.87426758 C87.56545145 187.69986476 80.77008009 182.37350929 74 177 C73.04609375 176.24460937 72.0921875 175.48921875 71.109375 174.7109375 C63.75876654 168.80036052 56.81361241 162.51552836 50 156 C49.35305176 155.3817334 48.70610352 154.7634668 48.03955078 154.12646484 C38.88004174 145.31408999 30.43440699 136.3191419 23 126 C22.57525391 125.41959961 22.15050781 124.83919922 21.71289062 124.24121094 C-1.45865716 92.28831259 -8.86296294 53.70126097 -3.64453125 14.89453125 C-2.80197922 9.80347444 -1.61848486 4.89861419 0 0 Z " fill="#161616" transform="translate(194,107)"/>
<path d="M0 0 C-0.495 0.61875 -0.99 1.2375 -1.5 1.875 C-3.19222773 3.83880904 -3.19222773 3.83880904 -3 6 C-2.236875 6.20625 -1.47375 6.4125 -0.6875 6.625 C4.49898594 8.55894391 9.19033084 11.2785146 14 14 C13.01 14.495 13.01 14.495 12 15 C9.86108398 14.13549805 9.86108398 14.13549805 7.24609375 12.76171875 C6.30958984 12.27123047 5.37308594 11.78074219 4.40820312 11.27539062 C3.42787109 10.75138672 2.44753906 10.22738281 1.4375 9.6875 C0.45330078 9.17509766 -0.53089844 8.66269531 -1.54492188 8.13476562 C-8.86814988 4.26370023 -8.86814988 4.26370023 -10 2 C-8.71211992 1.46987262 -7.41953322 0.9511671 -6.125 0.4375 C-5.40570313 0.14746094 -4.68640625 -0.14257812 -3.9453125 -0.44140625 C-2 -1 -2 -1 0 0 Z " fill="#0A0A0A" transform="translate(259,796)"/>
<path d="M0 0 C4.99686424 4.18327224 9.67570687 8.54884993 14.25 13.1875 C14.86101562 13.80302734 15.47203125 14.41855469 16.1015625 15.05273438 C17.23067615 16.19047663 18.35874861 17.32925399 19.48535156 18.46948242 C20.98505378 19.98489719 22.49115455 21.49369374 24 23 C21 23 21 23 18.73168945 21.10400391 C17.86761475 20.23694824 17.00354004 19.36989258 16.11328125 18.4765625 C15.65140915 18.0151889 15.18953705 17.55381531 14.71366882 17.07846069 C13.73934115 16.10179295 12.76870424 15.12143141 11.80151367 14.13769531 C10.31648219 12.62904553 8.81855547 11.1341798 7.31835938 9.640625 C0 2.2790462 0 2.2790462 0 0 Z " fill="#090809" transform="translate(205,121)"/>
<path d="M0 0 C4.18352841 1.76754075 7.48929753 4.620859 11 7.4375 C12.22888267 8.41572146 13.458042 9.39359549 14.6875 10.37109375 C15.25984375 10.82726074 15.8321875 11.28342773 16.421875 11.75341797 C18.25663167 13.20271679 20.11830594 14.61225063 22 16 C21.67 16.66 21.34 17.32 21 18 C18.05583392 15.75861752 15.12090964 13.50543624 12.1875 11.25 C11.35412109 10.61578125 10.52074219 9.9815625 9.66210938 9.328125 C8.85966797 8.709375 8.05722656 8.090625 7.23046875 7.453125 C6.49207764 6.88754883 5.75368652 6.32197266 4.99291992 5.73925781 C2.98313495 3.98528156 1.51477991 2.18731704 0 0 Z " fill="#0E0D0E" transform="translate(264,176)"/>
<path d="M0 0 C3.39417765 3.12621626 5.6062718 5.56541027 7 10 C5 8.625 5 8.625 3 7 C3 6.34 3 5.68 3 5 C2.01 5 1.02 5 0 5 C-0.33 7.31 -0.66 9.62 -1 12 C-1.33 12 -1.66 12 -2 12 C-1.85904936 10.3745692 -1.71207913 8.74965949 -1.5625 7.125 C-1.48128906 6.22007813 -1.40007812 5.31515625 -1.31640625 4.3828125 C-1 2 -1 2 0 0 Z " fill="#0D0D0D" transform="translate(194,107)"/>
<path d="M0 0 C0.66 0.33 1.32 0.66 2 1 C0.82255415 4.53233755 0.04394359 4.86308075 -3.0625 6.6875 C-3.79597656 7.12449219 -4.52945313 7.56148437 -5.28515625 8.01171875 C-5.85105469 8.33785156 -6.41695312 8.66398438 -7 9 C-5.27845212 5.23511958 -3.00765886 2.84936103 0 0 Z " fill="#1D1D1C" transform="translate(681,900)"/>
<path d="M0 0 C3.99500618 1.3697164 6.80009492 3.25722422 10 6 C9.21625 5.835 8.4325 5.67 7.625 5.5 C4.18082427 4.82086554 4.18082427 4.82086554 1 6 C0.67 4.02 0.34 2.04 0 0 Z " fill="#0A0A0A" transform="translate(150,225)"/>
<path d="M0 0 C1 2 1 2 1 5 C2.32 5.66 3.64 6.32 5 7 C2.03 7 -0.94 7 -4 7 C-2.68 4.69 -1.36 2.38 0 0 Z " fill="#090909" transform="translate(405,829)"/>
<path d="M0 0 C-3.50538557 1.96301592 -7.13351728 2.95902388 -11 4 C-7.84441727 0.34616736 -4.73375145 -1.57791715 0 0 Z " fill="#0A0B0B" transform="translate(277,789)"/>
</svg>
