<?xml version="1.0" encoding="UTF-8"?>
<svg version="1.1" xmlns="http://www.w3.org/2000/svg" width="500" height="500">
<path d="M0 0 C3.27418868 1.09139623 3.83548146 1.72910317 5.9375 4.3125 C9.23103181 8.19971565 12.71400565 11.83577685 16.3125 15.4375 C16.84029053 15.96964111 17.36808105 16.50178223 17.91186523 17.05004883 C20.69122428 19.87502138 20.69122428 19.87502138 24 22 C24 22.66 24 23.32 24 24 C24.5259375 24.21527344 25.051875 24.43054688 25.59375 24.65234375 C28.93455958 26.52341405 31.64844699 29.03626832 34.5 31.5625 C44.61264321 40.69163441 44.61264321 40.69163441 56 48 C56 48.66 56 49.32 56 50 C56.70125 50.2475 57.4025 50.495 58.125 50.75 C61.39514548 52.17180238 64.141122 53.87246288 67 56 C67 56.66 67 57.32 67 58 C67.70125 58.24878906 68.4025 58.49757812 69.125 58.75390625 C72.37627523 60.16308668 75.07756022 61.93577786 78 63.9375 C80.92375963 65.9326676 83.79475146 67.88371109 86.875 69.62890625 C87.57625 70.08136719 88.2775 70.53382812 89 71 C89 71.66 89 72.32 89 73 C89.88945312 73.2578125 90.77890625 73.515625 91.6953125 73.78125 C95.00105769 75.00039007 97.11262697 76.3465846 99.875 78.5 C104.37261665 81.87625966 108.96572697 84.93145184 113.75 87.875 C120.93268916 92.30568149 127.96524943 96.92302545 134.96386719 101.63769531 C137.19934363 103.1333738 139.44630742 104.61068528 141.6953125 106.0859375 C142.49404785 106.61203613 143.2927832 107.13813477 144.11572266 107.68017578 C145.65730642 108.69516489 147.20110939 109.70679493 148.74755859 110.71435547 C160.85788665 118.71577331 160.85788665 118.71577331 163 123 C163.0139084 125.22293347 162.9648554 127.44636543 162.88671875 129.66796875 C162.0612291 150.57743252 162.0612291 150.57743252 169 170 C169.69152885 171.65650538 170.36735886 173.3201228 171 175 C171.66 175 172.32 175 173 175 C173.70125 176.03125 174.4025 177.0625 175.125 178.125 C181.73902087 187.65302426 194.07076984 193.42069223 205 196.4765625 C211.918624 197.68371825 218.99238482 197.77862654 226 198 C225.24998448 201.53025325 224.59004559 202.65898354 221.5625 204.6875 C213.48042524 210.43764997 203.53429586 217.93140828 199 227 C200.27875 226.835 201.5575 226.67 202.875 226.5 C209.24273382 225.79582722 215.78075389 225.20680776 222 227 C221.56536098 229.75271379 221.11898332 232.48773594 220.48828125 235.203125 C218.97318813 241.8652366 218.78917442 248.18330628 219 255 C219.44988281 254.34515625 219.89976562 253.6903125 220.36328125 253.015625 C238.99834421 226.57549559 238.99834421 226.57549559 252 222 C252 221.34 252 220.68 252 220 C267.00568709 211.87602749 281.34135459 206.79522933 298.625 206.875 C299.470625 206.87113281 300.31625 206.86726562 301.1875 206.86328125 C302.41339844 206.86521484 302.41339844 206.86521484 303.6640625 206.8671875 C304.40092285 206.86831543 305.1377832 206.86944336 305.89697266 206.87060547 C308.04199006 207.00258355 309.93683128 207.41327001 312 208 C309.29637011 202.68929844 306.77893686 201.65883743 301.30859375 199.828125 C297.64305944 198.91065951 294.06805263 198.46769449 290.3125 198.0625 C284.25852487 197.35969637 279.43003784 196.3926009 275 192 C273.5 189.1875 273.5 189.1875 273 187 C274.485 186.01 274.485 186.01 276 185 C262.98753915 183.50012133 249.39567981 183.78718611 236.54321289 186.52294922 C223.34424182 188.99878578 207.80616292 187.84872159 195 184 C195.33 183.01 195.66 182.02 196 181 C207.19573161 178.78558321 218.3823341 176.69390359 229.68212891 175.08154297 C233.67843482 174.50906723 237.65380797 173.89806753 241.62109375 173.1484375 C259.06306011 169.8763058 278.78478058 168.37362184 295 177 C297.19190267 178.55857639 298.35303549 179.80404732 300 182 C300 183.32 300 184.64 300 186 C301.2375 186.1546875 301.2375 186.1546875 302.5 186.3125 C307.81484086 187.3564866 312.48609664 188.99073109 317 192 C317 192.66 317 193.32 317 194 C317.598125 194.20625 318.19625 194.4125 318.8125 194.625 C321.90255277 196.56731888 322.60636 198.65291517 324 202 C325.09289488 210.39855254 324.33814024 217.67938835 320 225 C316.51870528 224.22967096 314.02092209 222.90795079 311 221 C303.05424257 217.02712128 290.43431766 220.42098295 282.44140625 222.8046875 C273.31048476 225.97615399 265.09241849 230.65112878 258.37109375 237.7109375 C257 239 257 239 255 239 C255 239.66 255 240.32 255 241 C254.34 241 253.68 241 253 241 C252.690625 241.61875 252.38125 242.2375 252.0625 242.875 C251.375 244.25 250.6875 245.625 250 247 C249.34 247 248.68 247 248 247 C247.34 248.65 246.68 250.3 246 252 C245.34 252 244.68 252 244 252 C243.77183594 252.680625 243.54367187 253.36125 243.30859375 254.0625 C241.67521337 257.72907327 239.45121669 260.80194158 237.0625 264 C236.57740967 264.65427979 236.09231934 265.30855957 235.5925293 265.98266602 C226.91581317 277.56327746 217.59643728 288.60017188 206.34765625 297.7734375 C204.57659169 299.38536292 204.05607591 300.59785562 203.7265625 302.9609375 C203.25813849 314.09501577 208.54746683 322.85021772 214.64453125 331.8203125 C216 334 216 334 216 336 C216.66 336 217.32 336 218 336 C218.66 337.65 219.32 339.3 220 341 C220.66 341 221.32 341 222 341 C222 341.66 222 342.32 222 343 C222.66 343 223.32 343 224 343 C226.125 344.875 226.125 344.875 228 347 C228 347.66 228 348.32 228 349 C228.66 349 229.32 349 230 349 C230 349.66 230 350.32 230 351 C231.03060547 351.3403125 231.03060547 351.3403125 232.08203125 351.6875 C235.68843136 353.30965587 238.61046863 355.56067728 241.6875 358 C242.26822266 358.45117188 242.84894531 358.90234375 243.44726562 359.3671875 C249.8791766 364.39374451 249.8791766 364.39374451 250.44140625 367.21484375 C250.81082064 375.52070915 248.18700609 380.6151913 243 387 C241.05457059 389.06645843 239.39448783 390.42181484 237 392 C236.01 392 235.02 392 234 392 C234 391.34 234 390.68 234 390 C234.66 390 235.32 390 236 390 C238.1583195 383.92972642 238.20852314 378.40629424 238 372 C237.34 372 236.68 372 236 372 C235.29875 371.2575 234.5975 370.515 233.875 369.75 C229.21130128 365.28907079 223.83190776 362.42542339 217.27734375 361.90625 C211.78780865 362.13223429 205.59318415 362.9444955 201.19140625 366.43359375 C199.67639213 368.16220657 199.67639213 368.16220657 198 371 C197.34 371.99 196.68 372.98 196 374 C195.34 374 194.68 374 194 374 C192.24421466 370.48842931 193.21343709 366.74231884 194 363 C196.51672747 356.38048245 201.28125504 352.81249664 207 349 C206.2471875 348.731875 205.494375 348.46375 204.71875 348.1875 C191.76914241 343.40997487 177.93065075 337.56851859 167 329 C167 328.34 167 327.68 167 327 C166.43796875 326.7628125 165.8759375 326.525625 165.296875 326.28125 C162.48105958 324.71052303 160.52044584 322.78528536 158.25 320.5 C157.05117188 319.30890625 157.05117188 319.30890625 155.828125 318.09375 C154 316 154 316 154 314 C153.01 314 152.02 314 151 314 C150.74863281 314.85722656 150.49726563 315.71445312 150.23828125 316.59765625 C147.21842139 324.89512607 141.47105963 333.08071871 136 340 C135.34 340 134.68 340 134 340 C133.814375 340.66 133.62875 341.32 133.4375 342 C131.39191226 346.26905268 128.42815357 349.74163706 125 353 C124.34 353 123.68 353 123 353 C123 353.66 123 354.32 123 355 C115.94546999 356.20443195 109.16562789 357.28100502 102 357 C102.4979837 353.26512223 102.87491756 351.18762365 105 348 C103.18671738 349.31141856 101.37439486 350.62416474 99.5625 351.9375 C98.55316406 352.66839844 97.54382813 353.39929688 96.50390625 354.15234375 C94.17707392 355.77321885 94.17707392 355.77321885 93 357 C85.10530482 357.75438198 73.17519056 357.58759528 66 354 C66 353.01 66 352.02 66 351 C66.66 351 67.32 351 68 351 C68 350.34 68 349.68 68 349 C69.5 347.375 69.5 347.375 71 346 C70.2265625 346.37253906 69.453125 346.74507813 68.65625 347.12890625 C67.6146875 347.60199219 66.573125 348.07507813 65.5 348.5625 C64.4790625 349.03816406 63.458125 349.51382812 62.40625 350.00390625 C55.62703862 351.98635912 49.79195754 349.86090332 43.5 347.1875 C42.85216553 346.92050293 42.20433105 346.65350586 41.53686523 346.37841797 C36.91179413 344.44951684 32.42493771 342.34792613 28 340 C28.27148437 338.11621094 28.27148437 338.11621094 29 336 C30.58789062 334.93847656 30.58789062 334.93847656 32.65625 334.140625 C33.42291992 333.83390869 34.18958984 333.52719238 34.97949219 333.21118164 C35.81125977 332.8939917 36.64302734 332.57680176 37.5 332.25 C39.24589733 331.54831774 40.99066976 330.84383084 42.734375 330.13671875 C43.61802734 329.7814209 44.50167969 329.42612305 45.41210938 329.06005859 C59.38036907 323.33834316 72.10386124 316.02897144 84.8125 307.9375 C88 306 88 306 90 306 C90 305.34 90 304.68 90 304 C95.41176471 300 95.41176471 300 98 300 C98 299.34 98 298.68 98 298 C100.08203125 296.08984375 100.08203125 296.08984375 102.8125 293.9375 C103.70582031 293.22464844 104.59914063 292.51179688 105.51953125 291.77734375 C108 290 108 290 111 289 C111 288.34 111 287.68 111 287 C111.66 287 112.32 287 113 287 C113 286.34 113 285.68 113 285 C114.375 283.375 114.375 283.375 116 282 C116.66 282 117.32 282 118 282 C118 281.34 118 280.68 118 280 C118.66 280 119.32 280 120 280 C120.25136719 279.42765625 120.50273437 278.8553125 120.76171875 278.265625 C122.16188349 275.70380939 123.8136459 273.87497682 125.8125 271.75 C129.46608206 267.73704921 132.27424426 263.68489268 135 259 C133.92363281 259.02320313 132.84726563 259.04640625 131.73828125 259.0703125 C107.00913567 259.44585866 85.91618184 252.757177 66.0625 238.078125 C64 236 64 236 64 232 C74.23 230.35 84.46 228.7 95 227 C91.74125 226.7525 88.4825 226.505 85.125 226.25 C59.88895964 224.05931288 37.48902705 216.74315038 18 200 C18 199.34 18 198.68 18 198 C17.34 198 16.68 198 16 198 C16 197.34 16 196.68 16 196 C15.34 196 14.68 196 14 196 C14 195.34 14 194.68 14 194 C13.34 194 12.68 194 12 194 C10.2734375 192.1015625 10.2734375 192.1015625 8.375 189.625 C7.42753906 188.40683594 7.42753906 188.40683594 6.4609375 187.1640625 C5 185 5 185 5 183 C6.05687012 183.08564209 7.11374023 183.17128418 8.20263672 183.25952148 C12.21710456 183.58421728 16.23180892 183.90590937 20.24658203 184.22680664 C21.96669745 184.36469068 23.68675233 184.50333257 25.40673828 184.64282227 C37.26423717 185.60377229 49.11879168 186.3974081 61 187 C60.33057373 186.8141333 59.66114746 186.6282666 58.97143555 186.43676758 C55.87415438 185.57115072 52.78089334 184.69190493 49.6875 183.8125 C48.63498047 183.52052734 47.58246094 183.22855469 46.49804688 182.92773438 C39.32470343 180.87505456 32.7128156 178.24166455 26 175 C25.13262207 174.60498291 24.26524414 174.20996582 23.37158203 173.80297852 C4.29688456 165.10460992 -9.71387418 148.98903834 -18 130 C-18.75 127 -18.75 127 -19 125 C-16.37331778 123.68665889 -15.39606928 124.22905679 -12.58203125 124.96875 C-11.66808594 125.2069043 -10.75414063 125.44505859 -9.8125 125.69042969 C-8.8225 125.95758789 -7.8325 126.22474609 -6.8125 126.5 C-5.79542969 126.76973633 -4.77835938 127.03947266 -3.73046875 127.31738281 C5.60943046 129.8273373 14.85888281 132.61509704 24.09375 135.484375 C25.72905451 135.98994624 27.36446118 136.49518727 29 137 C29.68191406 137.21333984 30.36382812 137.42667969 31.06640625 137.64648438 C34.25572292 138.61140502 36.61153874 139 40 139 C37.03 137.68 34.06 136.36 31 135 C31 134.34 31 133.68 31 133 C30.43667969 132.89042969 29.87335938 132.78085938 29.29296875 132.66796875 C24.78617622 131.35508711 20.944616 128.48619902 17 126 C15.68708984 125.17822266 15.68708984 125.17822266 14.34765625 124.33984375 C9.62611623 121.30403524 9.62611623 121.30403524 8 120 C8 119.34 8 118.68 8 118 C7.42894531 117.75121094 6.85789062 117.50242187 6.26953125 117.24609375 C-6.5439839 110.21079025 -13.89689282 94.42098487 -18 81 C-19.96400939 73.40127919 -21.1825654 65.87059709 -21 58 C-16.23854362 58.54520493 -12.72415221 60.75154586 -8.75 63.25 C-7.40822808 64.07531876 -6.06578306 64.89954427 -4.72265625 65.72265625 C-4.0795752 66.11855957 -3.43649414 66.51446289 -2.77392578 66.92236328 C-0.60975275 68.2370701 1.58976811 69.47473931 3.8125 70.6875 C6.88278011 72.36324167 9.88508938 74.12203002 12.875 75.9375 C21.65730126 81.23131374 30.6029907 85.89221644 40 90 C39.45472656 89.5875 38.90945312 89.175 38.34765625 88.75 C26.68762987 79.82061227 26.68762987 79.82061227 22 75 C22 74.34 22 73.68 22 73 C21.01 72.67 20.02 72.34 19 72 C14 66.53488372 14 66.53488372 14 64 C13.34 64 12.68 64 12 64 C7.54540916 59.16972078 5.04530711 53.12233945 2.75 47.0625 C2.50411133 46.41925781 2.25822266 45.77601562 2.00488281 45.11328125 C-1.19169907 36.29512434 -2.33202451 27.72579394 -2.25 18.375 C-2.25773437 17.48554687 -2.26546875 16.59609375 -2.2734375 15.6796875 C-2.25708228 10.11891339 -1.5675266 5.33705486 0 0 Z " fill="#1B1B1B" transform="translate(94,52)"/>
<path d="M0 0 C1.39453125 1.26953125 1.39453125 1.26953125 3.26953125 3.76953125 C3.26953125 5.08953125 3.26953125 6.40953125 3.26953125 7.76953125 C4.09453125 7.87265625 4.91953125 7.97578125 5.76953125 8.08203125 C11.08437211 9.12601785 15.75562789 10.76026234 20.26953125 13.76953125 C20.26953125 14.42953125 20.26953125 15.08953125 20.26953125 15.76953125 C20.92953125 16.09953125 21.58953125 16.42953125 22.26953125 16.76953125 C20.28953125 16.76953125 18.30953125 16.76953125 16.26953125 16.76953125 C15.77453125 15.28453125 15.77453125 15.28453125 15.26953125 13.76953125 C14.60953125 13.43953125 13.94953125 13.10953125 13.26953125 12.76953125 C13.97292691 15.27918739 13.97292691 15.27918739 15.26953125 17.76953125 C17.31058764 18.65646428 17.31058764 18.65646428 19.26953125 18.76953125 C17.51953125 23.64453125 17.51953125 23.64453125 15.26953125 24.76953125 C14.93953125 24.43953125 14.60953125 24.10953125 14.26953125 23.76953125 C13.93953125 24.42953125 13.60953125 25.08953125 13.26953125 25.76953125 C12.14546875 25.13917969 11.02140625 24.50882813 9.86328125 23.859375 C4.51192058 21.18251699 -0.78001008 20.68926172 -6.6640625 20.08007812 C-12.55829299 19.33016387 -17.13155856 17.63549013 -21.73046875 13.76953125 C-23.23046875 10.95703125 -23.23046875 10.95703125 -23.73046875 8.76953125 C-22.74046875 8.10953125 -21.75046875 7.44953125 -20.73046875 6.76953125 C-33.7429296 5.26965258 -47.33478894 5.55671736 -60.18725586 8.29248047 C-73.38622693 10.76831703 -88.92430583 9.61825284 -101.73046875 5.76953125 C-101.40046875 4.77953125 -101.07046875 3.78953125 -100.73046875 2.76953125 C-89.53473714 0.55511446 -78.34813465 -1.53656516 -67.04833984 -3.14892578 C-63.05203393 -3.72140152 -59.07666078 -4.33240122 -55.109375 -5.08203125 C-37.90235543 -8.31008667 -15.16064831 -10.78014496 0 0 Z " fill="#282727" transform="translate(390.73046875,230.23046875)"/>
<path d="M0 0 C3.72339578 2.25183311 7.37580067 4.59178367 11 7 C11.82886719 7.54011719 12.65773438 8.08023437 13.51171875 8.63671875 C16.64125287 10.95718122 18.61834471 12.70074796 19.734375 16.5 C20.32000378 24.42851265 16.87291418 30.00181448 12 36 C10.05457059 38.06645843 8.39448783 39.42181484 6 41 C5.01 41 4.02 41 3 41 C3 40.34 3 39.68 3 39 C3.66 39 4.32 39 5 39 C7.1583195 32.92972642 7.20852314 27.40629424 7 21 C6.34 21 5.68 21 5 21 C4.29875 20.2575 3.5975 19.515 2.875 18.75 C-0.46719871 15.55311428 -3.81503956 13.85882858 -8 12 C-7.68289063 11.38640625 -7.36578125 10.7728125 -7.0390625 10.140625 C-6.04371515 8.09005979 -5.47588139 6.22077983 -5 4 C-3.35 4 -1.7 4 0 4 C0 2.68 0 1.36 0 0 Z M-5 9 C-1 10 -1 10 -1 10 Z " fill="#2D2D2D" transform="translate(325,403)"/>
<path d="M0 0 C1.65 0.33 3.3 0.66 5 1 C4.40300869 4.33135891 3.27987719 6.21275667 1.0625 8.75 C0.53785156 9.36359375 0.01320312 9.9771875 -0.52734375 10.609375 C-2 12 -2 12 -4 12 C-4 12.66 -4 13.32 -4 14 C-4.99 14 -5.98 14 -7 14 C-5.43181728 8.547001 -3.96189783 4.23513217 0 0 Z " fill="#323232" transform="translate(221,393)"/>
<path d="M0 0 C3.125 0.375 3.125 0.375 6 1 C5.814375 1.61875 5.62875 2.2375 5.4375 2.875 C4.76313824 5.04160178 4.76313824 5.04160178 6 7 C5.5625 9.125 5.5625 9.125 5 11 C1.15314615 9.75237172 -1.02929405 8.6129609 -3 5 C-2 2 -2 2 0 0 Z " fill="#444444" transform="translate(370,236)"/>
<path d="M0 0 C-0.99 0.495 -0.99 0.495 -2 1 C-2.68472665 2.88764903 -2.68472665 2.88764903 -3.125 5.0625 C-3.29257813 5.79597656 -3.46015625 6.52945312 -3.6328125 7.28515625 C-3.75398437 7.85105469 -3.87515625 8.41695313 -4 9 C-7 7.25 -7 7.25 -10 5 C-10 3.68 -10 2.36 -10 1 C-6.61981469 -0.04005702 -3.5219721 -0.08004482 0 0 Z " fill="#4E4C4D" transform="translate(168,283)"/>
<path d="M0 0 C0.33 0 0.66 0 1 0 C1.28875 0.94875 1.5775 1.8975 1.875 2.875 C2.76825109 6.05211578 2.76825109 6.05211578 5 8 C0.69230769 13.78461538 0.69230769 13.78461538 -2.8125 14.875 C-3.8953125 14.936875 -3.8953125 14.936875 -5 15 C-5 14.34 -5 13.68 -5 13 C-4.34 13 -3.68 13 -3 13 C-2.01 8.71 -1.02 4.42 0 0 Z " fill="#767676" transform="translate(333,429)"/>
<path d="M0 0 C2.97 0.99 5.94 1.98 9 3 C8.67 3.99 8.34 4.98 8 6 C7.0409375 6.2165625 7.0409375 6.2165625 6.0625 6.4375 C5.0415625 6.7159375 5.0415625 6.7159375 4 7 C3.34 8.32 2.68 9.64 2 11 C1.01 7.7 0.02 4.4 -1 1 C-0.67 0.67 -0.34 0.34 0 0 Z " fill="#202020" transform="translate(76,176)"/>
<path d="M0 0 C0.28617187 0.64453125 0.57234375 1.2890625 0.8671875 1.953125 C1.81418662 4.19884128 1.81418662 4.19884128 4.125 4.75 C4.74375 4.8325 5.3625 4.915 6 5 C4.7260411 7.03833424 3.38938077 9.03852126 2 11 C1.34 11 0.68 11 0 11 C-1.26026798 8.47946405 -0.91874445 7.1457902 -0.5625 4.375 C-0.46066406 3.55773437 -0.35882813 2.74046875 -0.25390625 1.8984375 C-0.17011719 1.27195312 -0.08632813 0.64546875 0 0 Z " fill="#696869" transform="translate(288,415)"/>
<path d="M0 0 C0.99 0 1.98 0 3 0 C6 4.22222222 6 4.22222222 6 7 C6.66 7 7.32 7 8 7 C7.67 7.66 7.34 8.32 7 9 C4.9375 9.625 4.9375 9.625 3 10 C2.67 9.01 2.34 8.02 2 7 C1.34 6.67 0.68 6.34 0 6 C0.185625 5.38125 0.37125 4.7625 0.5625 4.125 C1.23686176 1.95839822 1.23686176 1.95839822 0 0 Z " fill="#3A3839" transform="translate(259,220)"/>
<path d="M0 0 C4.75481646 0.57634139 7.97048212 2.55068521 12 5 C8.94736336 5.98120464 7.05263664 5.98120464 4 5 C4 4.34 4 3.68 4 3 C3.01 3 2.02 3 1 3 C0.67 4.32 0.34 5.64 0 7 C0 4.69 0 2.38 0 0 Z " fill="#696969" transform="translate(73,110)"/>
<path d="M0 0 C0.99 0.33 1.98 0.66 3 1 C3 1.66 3 2.32 3 3 C9.93 3.495 9.93 3.495 17 4 C17 4.33 17 4.66 17 5 C11.06 5.33 5.12 5.66 -1 6 C-1.33 5.01 -1.66 4.02 -2 3 C-1.34 2.01 -0.68 1.02 0 0 Z " fill="#353132" transform="translate(386,266)"/>
<path d="M0 0 C-0.33 0.78375 -0.66 1.5675 -1 2.375 C-2.11866511 4.84332497 -2.11866511 4.84332497 -2 7 C-3.98 6.34 -5.96 5.68 -8 5 C-7.8125 3.125 -7.8125 3.125 -7 1 C-2.66666667 -1.33333333 -2.66666667 -1.33333333 0 0 Z " fill="#555555" transform="translate(130,387)"/>
<path d="M0 0 C3.99996286 1.33332095 4.83782337 3.4957827 7 7 C1.25 6.125 1.25 6.125 -1 5 C-0.67 3.35 -0.34 1.7 0 0 Z " fill="#535152" transform="translate(94,52)"/>
<path d="M0 0 C1.98 0 3.96 0 6 0 C3.66153846 5.66153846 3.66153846 5.66153846 0.3125 7.375 C-0.450625 7.58125 -1.21375 7.7875 -2 8 C-2 6 -2 6 -0.5 4.375 C-0.005 3.92125 0.49 3.4675 1 3 C0.34 2.67 -0.32 2.34 -1 2 C-0.67 1.34 -0.34 0.68 0 0 Z " fill="#747073" transform="translate(164,395)"/>
<path d="M0 0 C1.32 0.66 2.64 1.32 4 2 C4 3.32 4 4.64 4 6 C2.0625 6.5625 2.0625 6.5625 0 7 C-1 6 -1 6 -1.125 3.5 C-1 1 -1 1 0 0 Z " fill="#161415" transform="translate(290,413)"/>
<path d="M0 0 C1.65 0 3.3 0 5 0 C5 0.66 5 1.32 5 2 C5.99 2.33 6.98 2.66 8 3 C4.62182575 3.84454356 2.32534757 4.10844919 -1 3 C-0.67 2.01 -0.34 1.02 0 0 Z " fill="#4E4A4D" transform="translate(290,233)"/>
<path d="M0 0 C2.91517292 1.07401108 4.77810176 1.77810176 7 4 C3.71303767 4.79953138 2.28976808 5.09658936 -1 4 C-0.67 2.68 -0.34 1.36 0 0 Z " fill="#3E3E3E" transform="translate(226,153)"/>
<path d="M0 0 C1.8125 0.1875 1.8125 0.1875 4 1 C5.75 3.5625 5.75 3.5625 7 6 C3.7 5.01 0.4 4.02 -3 3 C-2.01 2.67 -1.02 2.34 0 2 C0 1.34 0 0.68 0 0 Z " fill="#555555" transform="translate(291,393)"/>
<path d="M0 0 C1.67542976 0.28604898 3.34385343 0.61781233 5 1 C3.515 2.485 3.515 2.485 2 4 C2.66 4.33 3.32 4.66 4 5 C3.67 6.98 3.34 8.96 3 11 C1.26337666 7.77484237 0.1094072 4.48670834 -1 1 C-0.67 0.67 -0.34 0.34 0 0 Z " fill="#6C6A6A" transform="translate(76,176)"/>
<path d="M0 0 C1.65 0 3.3 0 5 0 C5.33 0.99 5.66 1.98 6 3 C5.01 4.485 5.01 4.485 4 6 C2.62437146 4.71034824 1.29233607 3.37310707 0 2 C0 1.34 0 0.68 0 0 Z " fill="#3A3A3A" transform="translate(122,130)"/>
<path d="M0 0 C0.33 0.66 0.66 1.32 1 2 C-2.44615385 7.78461538 -2.44615385 7.78461538 -5.25 8.875 C-5.8275 8.91625 -6.405 8.9575 -7 9 C-7 8.34 -7 7.68 -7 7 C-6.34 7 -5.68 7 -5 7 C-5 6.34 -5 5.68 -5 5 C-4.34 5 -3.68 5 -3 5 C-2.690625 4.360625 -2.38125 3.72125 -2.0625 3.0625 C-1 1 -1 1 0 0 Z " fill="#6E6E6E" transform="translate(217,327)"/>
<path d="M0 0 C2.16874252 0.50603992 3.99967627 0.99983813 6 2 C6 2.66 6 3.32 6 4 C6.66 4.33 7.32 4.66 8 5 C6.02 5 4.04 5 2 5 C1.34 3.35 0.68 1.7 0 0 Z " fill="#676767" transform="translate(405,242)"/>
<path d="M0 0 C1.32 1.32 2.64 2.64 4 4 C3.01 4.33 2.02 4.66 1 5 C0.01 4.34 -0.98 3.68 -2 3 C-1 1 -1 1 0 0 Z M4 3 C8 4 8 4 8 4 Z " fill="#131112" transform="translate(316,409)"/>
<path d="M0 0 C1.32 0.66 2.64 1.32 4 2 C4 2.99 4 3.98 4 5 C3.01 5.33 2.02 5.66 1 6 C0.34 4.35 -0.32 2.7 -1 1 C-0.67 0.67 -0.34 0.34 0 0 Z " fill="#302F2F" transform="translate(195,395)"/>
<path d="M0 0 C3.465 1.485 3.465 1.485 7 3 C5.68 3.99 4.36 4.98 3 6 C2.01 5.34 1.02 4.68 0 4 C0 2.68 0 1.36 0 0 Z " fill="#3D3D3D" transform="translate(121,136)"/>
<path d="M0 0 C0.33 0 0.66 0 1 0 C1.28875 0.94875 1.5775 1.8975 1.875 2.875 C2.76825109 6.05211578 2.76825109 6.05211578 5 8 C4.34 8.66 3.68 9.32 3 10 C3 9.34 3 8.68 3 8 C2.01 8 1.02 8 0 8 C0 5.36 0 2.72 0 0 Z " fill="#6E6E6E" transform="translate(333,429)"/>
<path d="M0 0 C3.6 5.4 3.6 5.4 5 8 C4.67 8.66 4.34 9.32 4 10 C1 8 1 8 0.48828125 6.0546875 C0.32552083 4.03645833 0.16276042 2.01822917 0 0 Z " fill="#6D6D6D" transform="translate(300,370)"/>
</svg>
